<svg width="890" height="615" viewBox="0 0 890 615" fill="none" xmlns="http://www.w3.org/2000/svg">
<g clip-path="url(#clip0_99_2)">
<path d="M402.113 17.7815C397.836 19.2898 391.546 22.1389 388.107 23.9823C384.585 25.9096 381.23 27.4179 380.559 27.4179C379.804 27.4179 378.043 26.6638 376.534 25.742C373.431 23.8985 369.153 23.5634 366.386 25.0717C365.379 25.5744 362.109 26.3286 359.089 26.6638C352.296 27.5855 352.715 27.5855 348.103 26.9152C345.167 26.4962 343.574 26.7476 340.974 28.0883C334.852 31.2725 332.252 35.6298 332.252 43.0038C332.252 48.1991 330.91 49.456 325.878 48.9532C320.427 48.4505 312.375 46.2718 310.782 44.9311C310.027 44.3445 308.769 42.4172 307.847 40.7413C305.079 35.2109 302.479 35.0433 297.699 40.071C296.273 41.5793 294.26 42.6686 291.996 43.0038C287.467 43.7579 286.293 45.6014 285.119 54.3161C284.196 61.2711 284.196 61.4387 286.461 64.6229C290.654 70.8237 288.641 73.4214 281.345 70.9075C278.913 70.0696 276.061 68.8127 275.055 68.1423C271.029 65.2933 263.817 67.1368 259.204 72.0807C257.443 74.0079 255.933 76.438 255.933 77.4435C255.933 79.9574 259.036 86.9124 261.217 89.2587C262.978 91.186 262.978 91.186 261.384 94.2864C260.546 95.9623 259.707 97.6382 259.539 97.8895C259.455 98.2247 260.294 99.4816 261.468 100.739C263.481 102.917 263.481 103.085 262.139 104.593C260.462 106.52 258.197 106.688 256.856 105.012C256.269 104.342 255.011 101.241 254.004 98.0571C251.824 91.3535 251.237 91.1022 242.179 93.2808C237.902 94.2864 235.637 95.3757 233.96 97.1354C229.515 101.828 222.302 99.2303 220.709 92.3591C220.29 90.5156 219.87 86.4934 219.87 83.4768C219.87 76.3542 218.277 75.2649 214.419 79.6223C212.322 82.0523 211.4 82.4713 209.555 82.1361C207.71 81.8009 206.619 82.2198 204.774 83.9796C201.755 86.9124 200.916 90.8508 202.258 95.6271C203.181 98.8951 203.097 99.6492 201.42 102.917C200.329 104.928 196.555 109.453 192.949 112.889C189.343 116.324 186.072 120.095 185.653 121.268C184.227 125.123 183.556 137.944 184.646 140.541C186.994 146.239 183.053 149.759 177.769 146.658C175.253 145.234 174.834 144.312 173.156 137.525C172.15 133.419 171.311 128.307 171.227 126.212C171.227 121.771 168.711 118.755 165.021 118.755C161.331 118.755 156.97 115.905 150.932 109.705L145.229 103.839L145.313 95.8785C145.396 86.3258 144.222 81.8847 141.622 81.8847C139.777 81.8847 131.139 87.08 129.965 88.9235C129.63 89.4263 129.294 91.0184 129.294 92.4429C129.294 95.7109 126.443 98.4761 122.585 98.8113C119.817 99.0627 119.649 99.2303 119.398 102.666C119.23 104.593 119.733 108.364 120.488 110.962L121.83 115.57L119.062 118.252C117.469 119.676 114.701 123.782 112.856 127.302C109.753 133.502 107.656 135.262 106.231 133C105.14 131.324 101.953 132.162 100.108 134.676C97.7601 137.776 96.0828 137.86 86.522 135.43L79.3933 133.586L75.6193 136.268C72.013 138.865 71.7614 138.949 65.5552 138.363C60.6071 137.944 58.5943 138.111 56.6653 139.117C53.5623 140.709 50.8785 140.96 46.8529 140.122C43.9176 139.536 43.3305 139.703 40.5629 142.469C38.5501 144.312 36.2857 145.569 34.1052 145.904C32.2601 146.239 29.3247 146.91 27.6474 147.412L24.4605 148.334L24.5443 153.446C24.6282 156.295 24.8798 159.479 25.2153 160.652C25.7185 162.496 33.0149 169.199 35.3632 170.037C35.9502 170.205 36.7889 172.551 37.2082 175.316C38.2985 182.355 40.8984 186.628 45.2594 188.807C51.214 191.656 52.0527 194.589 47.9432 198.36C45.9304 200.203 45.4272 201.376 45.4272 204.058C45.4272 207.829 43.666 209.588 36.705 212.689C34.6922 213.527 32.2601 215.203 31.4214 216.376C30.4989 217.716 27.6474 219.141 23.7057 220.482C18.0027 222.409 17.3318 222.493 15.0674 221.32C10.287 218.89 9.53216 222.744 13.8094 227.688C18.9252 233.721 20.8542 237.743 21.3574 243.944C21.6929 247.464 22.4477 250.313 23.2025 251.067C24.0411 251.905 26.8087 252.491 31.3375 252.827L38.2985 253.246L38.0469 257.603C37.8792 260.033 38.1308 262.128 38.634 262.463C40.1436 263.385 39.6404 264.39 37.2921 265.563C35.1116 266.569 34.86 267.239 34.3568 272.686C33.8536 277.211 33.1826 279.641 31.4214 282.239L29.157 285.59L30.7505 290.115C31.5053 292.545 32.0085 295.562 31.7569 296.819C31.0859 300.674 32.7633 305.031 36.4534 308.634C38.3824 310.478 41.3177 313.662 42.995 315.505C45.0917 318.019 46.6013 319.025 48.2787 319.025C49.5367 319.025 52.8913 320.114 55.7428 321.455C60.9426 323.885 61.0264 323.885 73.271 323.466C84.8446 322.963 85.6833 323.047 86.1865 324.555C86.522 325.393 87.3606 326.818 88.0316 327.572C89.2057 328.996 88.9541 331.594 86.8574 339.303C86.6058 340.141 85.4317 340.811 83.7543 340.979C81.4899 341.147 80.7351 341.901 78.8901 345.336C76.2902 350.113 75.1999 355.559 76.4579 357.151C76.9611 357.738 80.0642 358.492 83.4189 358.743C88.4509 359.162 90.9669 358.911 98.6826 356.816C103.799 355.475 108.914 354.051 110.089 353.548C113.527 352.207 125.436 339.973 126.694 336.622C127.281 335.029 129.294 330.588 131.139 326.734C134.326 320.365 134.829 319.779 137.932 318.941C142.21 317.768 145.732 314.165 146.487 310.059C147.325 305.115 149.087 303.187 155.125 300.506C158.228 299.081 162.17 296.987 164.015 295.73C166.531 293.97 168.208 293.551 172.066 293.467C176.427 293.467 177.434 293.802 181.879 296.903C184.562 298.83 189.51 301.763 192.865 303.523C198.149 306.204 199.323 306.539 201.084 305.785C202.174 305.198 203.097 304.444 203.097 303.942C203.097 302.098 205.781 303.355 213.245 308.802C217.606 311.902 222.051 314.835 223.309 315.338C224.651 316.008 225.825 317.516 226.496 319.611C227.083 321.371 229.599 324.974 232.115 327.656C235.721 331.426 237.147 332.432 239.16 332.432C241.34 332.432 241.927 331.929 242.934 329.583L244.192 326.65L250.482 329.583C254.004 331.091 257.527 332.432 258.281 332.432C260.043 332.432 270.023 343.493 271.532 347.096C272.119 348.604 273.042 353.464 273.461 358.073C273.964 362.598 274.887 368.212 275.642 370.559C276.397 372.821 277.319 378.1 277.738 382.206C278.493 389.664 278.493 389.664 282.267 393.183C284.364 395.111 286.125 397.038 286.125 397.457C286.209 400.892 288.809 409.691 290.235 411.115C292.415 413.294 293.505 421.506 291.996 425.025C290.318 429.048 290.067 433.321 291.409 436.589C292.499 439.103 293.338 439.773 296.357 440.527C303.234 442.287 309.524 444.885 310.027 446.226C310.279 446.98 310.279 449.577 309.943 452.007C309.272 457.622 310.866 460.638 314.64 460.638C321.265 460.638 329.233 467.174 333.929 476.559C336.361 481.419 337.703 483.179 339.297 483.598C340.722 483.933 341.645 485.023 342.316 487.034C343.574 490.888 350.032 496.503 353.973 497.089C364.541 498.765 366.302 499.268 368.147 501.279C369.153 502.536 369.992 504.379 369.992 505.469C369.992 507.815 372.005 510.077 374.185 510.077C376.617 510.077 381.566 517.284 383.495 523.568C384.417 526.669 385.675 529.685 386.346 530.188C386.933 530.691 389.617 531.613 392.217 532.367C397.584 533.708 406.055 537.897 407.984 540.16C408.655 540.914 410.08 544.098 411.087 547.366C414.693 558.343 419.473 565.382 423.499 565.382C427.105 565.466 431.97 568.65 434.821 573.007C440.524 581.638 444.046 584.236 454.362 587.504C464.426 590.772 466.187 592.029 468.787 598.146C471.723 604.85 475.497 606.19 482.793 603.09C489.586 600.157 492.27 600.157 497.889 602.922C505.772 606.861 512.985 608.62 516.256 607.447C517.765 606.861 519.443 606.442 520.03 606.442C520.617 606.442 523.552 608.788 526.571 611.637C530.597 615.575 532.862 618.592 535.042 623.201C536.719 626.636 539.655 631.245 541.668 633.34C545.022 636.943 545.274 637.53 544.771 640.462C544.351 643.395 544.603 643.982 546.951 646.244C549.216 648.423 550.138 648.758 554.08 648.674C556.68 648.591 559.363 648.004 560.454 647.166C563.221 645.239 563.976 645.406 568.505 649.177C570.685 651.021 573.034 652.948 573.537 653.367C575.13 654.624 573.285 657.892 570.434 658.981C568.673 659.652 567.834 660.741 567.163 663.087C564.899 671.131 566.576 672.305 574.459 668.618C579.24 666.439 581.337 665.936 588.13 665.685C594.923 665.433 596.684 665.014 598.949 663.422C601.632 661.495 601.716 661.495 602.89 663.087C603.561 663.925 604.819 666.188 605.658 668.031C606.497 669.875 608.677 673.98 610.606 677.248C614.464 683.868 614.716 685.712 612.367 690.991C610.774 694.426 610.69 695.013 611.864 699.035C613.625 704.817 617.986 708.672 622.851 708.672C624.36 708.672 625.199 709.258 625.786 710.85C626.709 713.113 631.489 717.889 632.915 717.889C633.418 717.889 636.437 719.397 639.54 721.325C644.656 724.425 645.495 724.676 647.591 723.755C648.849 723.252 651.114 721.492 652.707 719.9C654.217 718.308 655.978 717.051 656.733 717.051C661.597 717.051 668.977 729.62 670.152 740.011C670.571 743.279 671.577 747.636 672.5 749.731C673.422 751.826 674.68 755.01 675.267 756.854C676.945 762.049 681.054 769.926 683.906 773.11C687.428 777.216 688.686 780.735 688.686 786.769C688.686 789.953 689.693 795.651 691.118 801.098C692.712 806.796 693.467 811.153 693.131 812.913C692.712 815.343 693.131 816.264 696.066 819.365C700.092 823.806 700.679 825.65 699.924 830.677C699.505 833.526 698.499 835.537 696.402 837.884C693.802 840.733 692.963 841.152 690.783 840.816C688.686 840.481 687.428 840.984 684.493 843.246C682.564 844.839 679.461 846.514 677.783 846.933C672.668 848.274 672.668 849.866 677.532 857.911L680.383 862.687L677.196 869.977C674.429 876.346 673.506 877.77 669.648 880.535C667.3 882.295 664.281 885.144 662.939 886.82C660.758 889.753 660.591 890.339 660.758 898.384C660.758 903.076 661.094 908.439 661.429 910.366C662.016 913.718 662.352 914.053 665.539 914.975C667.384 915.478 673.674 915.981 679.461 915.981C689.525 916.064 690.112 915.981 694.892 913.551C699.002 911.456 700.427 910.199 702.608 906.428C704.118 903.914 705.963 899.724 706.718 897.21C708.73 890.591 709.653 888.831 713.511 884.976C716.027 882.463 717.956 881.289 720.472 880.87C725.252 880.033 728.523 877.1 730.62 871.402C732.297 867.044 732.297 866.206 731.374 861.346C730.536 857.24 730.536 853.972 731.207 846.766C732.129 837.632 732.213 837.297 734.981 835.118C739.593 831.264 746.89 827.242 753.18 825.147C758.38 823.387 759.386 823.219 761.986 824.141C764.25 824.979 765.76 824.979 768.695 824.225C773.476 823.052 774.063 822.298 774.734 816.516C775.237 812.242 775.069 811.572 773.056 809.226C770.121 805.706 769.702 803.528 771.295 799.841C772.972 795.818 772.888 792.55 771.127 790.623C769.869 789.199 769.869 788.863 771.127 786.098C774.482 779.059 771.295 774.283 759.05 768.166C753.683 765.485 752.257 764.312 742.613 754.508C738.251 750.15 736.49 748.977 731.291 747.217C727.6 745.96 725.084 744.62 724.917 743.782C724.833 743.111 726.929 739.676 729.697 736.156C735.568 728.866 736.49 726.855 736.49 721.241C736.49 715.962 737.581 713.113 741.103 709.51C742.696 707.834 745.464 703.057 747.477 698.365C750.831 690.404 751.251 689.985 760.392 681.438C765.592 676.578 770.456 672.64 771.211 672.64C773.14 672.64 778.508 676.83 777.921 677.751C777.669 678.17 775.824 678.924 773.811 679.427C769.702 680.516 767.94 682.025 768.695 683.952C769.282 685.628 774.23 687.723 777.417 687.723C778.675 687.723 781.275 688.477 783.036 689.399C792.765 694.426 797.126 695.683 804.422 695.6C808.364 695.516 812.893 695.181 814.486 694.845C820.022 693.756 823.88 698.7 827.067 710.934C830.757 724.676 831.176 725.431 838.137 732.972C844.679 740.011 851.388 744.62 855.246 744.704C857.762 744.704 861.2 741.771 862.207 738.586C862.71 737.162 863.716 732.553 864.387 728.447C865.31 723.336 866.819 718.727 869.084 714.035C873.361 705.32 873.109 703.56 867.155 698.532C864.723 696.438 860.613 691.494 857.594 686.885C851.22 676.997 844.762 670.964 838.472 669.037C834.698 667.78 833.776 667.193 833.357 665.266C833.105 664.009 832.434 662.417 831.847 661.663C831.26 660.908 822.705 656.467 812.809 651.775L794.778 643.144L785.972 634.513C776.495 625.296 770.54 621.441 763.579 619.933C761.231 619.43 755.36 617.335 750.58 615.156C745.883 613.061 737.664 609.626 732.465 607.615C720.052 602.755 718.291 601.833 714.266 598.062C712.42 596.386 707.556 593.37 703.363 591.526C693.886 587.169 691.538 585.325 687.512 578.873C682.815 571.164 683.151 570.494 696.486 560.187C700.26 557.254 702.944 554.573 702.944 553.735C702.944 552.897 703.698 551.221 704.705 549.964C707.053 547.031 706.214 545.104 700.931 541.082C696.402 537.646 690.783 535.216 687.344 535.216C684.325 535.216 674.429 539.406 673.339 541.165C672.081 543.176 670.655 543.176 667.636 540.998C664.197 538.568 660.339 538.232 655.139 539.741C648.933 541.584 642.643 541.5 641.972 539.573C641.134 537.227 639.876 536.808 635.431 537.395C630.063 537.981 620.419 535.048 612.535 530.356C609.432 528.428 605.322 526.334 603.477 525.579C600.374 524.406 599.703 523.568 597.691 518.708C595.091 512.675 591.652 509.407 581.337 503.374C574.124 499.016 571.776 496.503 569.595 490.553C567.666 485.358 566.66 484.604 558.693 482.257C554.08 480.917 548.209 474.129 547.287 469.269C547.035 467.509 544.938 461.979 542.59 457.035C540.326 452.007 537.893 445.22 537.223 441.952C534.958 430.891 532.61 422.595 530.01 416.227C528.584 412.791 526.571 407.345 525.481 404.16C524.391 400.976 523.049 397.876 522.462 397.122C521.875 396.451 521.204 393.099 520.869 389.664C520.365 383.714 520.198 383.295 516.675 379.692C514.662 377.597 511.643 375.167 509.966 374.329C508.288 373.408 504.095 370.475 500.74 367.793C497.302 365.112 492.438 361.593 489.922 359.917C487.406 358.325 482.457 354.638 479.019 351.705C475.077 348.437 469.877 345.085 465.181 342.906C458.891 339.973 455.368 337.46 445.388 328.829C438.679 322.963 432.137 316.846 430.963 315.086C427.441 309.975 422.828 295.059 422.828 288.775C422.828 285.004 422.073 281.317 420.312 276.289C417.545 268.58 417.293 265.647 418.719 259.865C419.557 256.514 419.893 256.095 421.486 256.597C426.183 258.106 429.873 255.508 430.796 250.145C431.215 247.799 431.97 246.626 433.395 245.955C438.931 243.442 435.24 235.9 425.344 229.364C420.731 226.264 420.312 225.509 420.899 219.644C421.319 215.286 421.067 213.862 419.557 210.929C417.461 206.907 417.293 201.712 419.054 196.684C419.725 194.757 420.312 191.824 420.312 190.315C420.312 187.299 421.235 186.545 430.208 181.517C433.815 179.59 433.899 179.59 434.821 181.098C437.253 185.036 438.427 185.707 442.034 184.869C443.879 184.45 449.246 182.523 453.943 180.595C460.401 177.914 463.587 176.07 467.529 172.467C470.381 169.87 473.987 166.853 475.497 165.847C477.006 164.758 478.767 162.579 479.438 160.987C480.864 157.468 482.374 157.384 490.844 160.317C494.283 161.574 499.315 162.747 502.166 162.914C506.947 163.333 507.45 163.25 510.134 160.82C514.327 157.133 516.843 156.714 520.03 159.06C522.462 160.82 522.63 161.239 522.127 164.758L521.623 168.613L525.313 170.456C531.855 173.64 533.532 174.143 535.294 173.221C537.81 171.797 537.39 166.602 534.036 159.311C532.442 155.876 530.765 153.11 530.429 153.11C530.01 153.11 526.991 150.848 523.72 148.167C517.849 143.223 517.849 143.139 517.262 138.027C516.507 131.24 515.501 128.81 513.488 128.81C512.65 128.81 511.475 128.223 510.888 127.553C510.05 126.464 510.301 125.877 512.566 123.95C517.849 119.509 520.952 116.073 520.952 114.649C520.952 112.805 514.579 105.599 511.559 104.007C510.301 103.336 508.372 103.001 507.282 103.252C504.934 103.839 503.592 102.498 502.837 98.8113C502.334 96.465 502.586 96.1299 505.772 94.5377C507.618 93.5322 510.637 91.3535 512.398 89.5101C514.243 87.6666 516.759 85.9907 518.436 85.6555C520.03 85.3203 521.875 84.6499 522.462 84.231C523.552 83.3092 523.804 77.8625 522.797 76.2704C521.539 74.2593 508.876 70.7399 500.405 70.0696C495.792 69.7344 486.567 68.4775 479.941 67.2206C473.232 65.9636 466.691 65.1257 465.265 65.3771C463.504 65.6285 461.575 65.1257 459.31 63.8688C452.685 60.098 439.434 55.7407 435.995 56.1596C433.311 56.4948 432.053 56.0758 427.86 53.3106C425.176 51.4671 422.66 49.2047 422.409 48.1991C422.073 47.2773 422.325 44.8473 422.828 42.8362C423.751 39.5682 423.751 38.8978 422.409 37.4733C421.402 36.384 419.809 35.7974 417.796 35.7974C413.016 35.7974 411.087 31.9429 413.267 26.7476C414.441 23.731 414.861 18.5356 413.938 16.1894C413.183 14.2621 410.835 14.5973 402.113 17.7815Z" fill="#3B3B3B"/>
<path d="M461.205 306.364C461.205 319.091 444.5 330 444.5 330C444.5 330 427.795 319.091 427.795 306.364C427.795 302.024 429.555 297.862 432.688 294.793C435.821 291.724 440.07 290 444.5 290C448.93 290 453.179 291.724 456.312 294.793C459.445 297.862 461.205 302.024 461.205 306.364Z" stroke="#A803D5" stroke-width="2" stroke-linecap="round" stroke-linejoin="round"/>
<path d="M444.5 311.818C447.575 311.818 450.069 309.376 450.069 306.364C450.069 303.351 447.575 300.909 444.5 300.909C441.425 300.909 438.932 303.351 438.932 306.364C438.932 309.376 441.425 311.818 444.5 311.818Z" fill="#D9D9D9" stroke="#A803D5" stroke-width="21" stroke-linecap="round" stroke-linejoin="round"/>
<path d="M434.723 318.344C435.266 319.076 435.612 320.996 436.511 321.348C436.874 321.491 436.916 322.053 437.221 322.225C437.596 322.434 437.98 322.928 438.3 323.226C438.898 323.782 439.651 324.036 440.245 324.575C440.722 325.007 441.333 325.168 441.814 325.534C442.031 325.7 442.287 325.641 442.517 325.854C442.683 326.008 442.812 326.109 442.957 326.292C443.167 326.557 443.2 327.204 443.567 327.329C444.507 327.647 445.824 326.099 446.549 325.84C446.812 325.747 446.97 325.386 447.216 325.229C447.376 325.126 447.541 325.066 447.699 324.978C448.093 324.757 448.644 324.278 448.934 323.921C449.293 323.478 449.896 323.225 450.311 322.795C450.663 322.43 451.136 321.718 451.653 321.606C452.386 321.446 453.442 320.911 453.995 320.424C454.373 320.091 454.581 319.763 454.911 319.401C455.119 319.174 455.638 318.32 455.01 318.344C454.745 318.355 454.414 318.67 454.187 318.803C453.518 319.196 452.847 319.537 452.164 319.909C451.591 320.22 450.809 320.124 450.183 320.278C448.659 320.651 447.088 320.597 445.527 320.597C442.943 320.597 440.337 320.723 437.74 320.723C437.285 320.723 436.682 320.707 436.263 320.528C435.688 320.282 435.569 319.769 435.205 319.374C434.996 319.145 435.131 319.231 435.305 319.401C435.631 319.721 436.014 320.088 436.412 320.319C437.464 320.929 438.489 320.95 439.585 321.286C440.065 321.433 440.472 321.573 440.472 322.162C440.472 322.807 440.716 322.692 441.239 322.948C441.434 323.043 441.67 323.337 441.268 323.337C440.285 323.337 439.198 322.775 438.371 322.294C437.453 321.761 436.662 321.044 435.738 320.535C435.456 320.379 434.67 319.721 435.425 319.721C435.819 319.721 437.724 320.557 436.895 319.721C436.42 319.242 435.799 318.846 435.234 318.477C434.553 318.032 436.208 319.172 436.37 319.276C438.485 320.645 440.741 320.615 443.149 320.91C444.26 321.046 445.415 320.973 446.535 320.973C447.364 320.973 448.097 320.597 448.906 320.597C449.396 320.597 450.41 320.487 449.672 321.209C449.243 321.63 448.658 321.577 448.11 321.661C445.849 322.008 443.561 321.682 441.296 321.877C440.431 321.951 439.566 322.099 438.698 322.099C438.569 322.099 437.548 322.056 437.846 322.127C440.139 322.672 442.679 322.6 445.023 322.6C445.352 322.6 446.35 322.354 446.35 322.85C446.35 323.122 446.363 323.487 446.031 323.587C445.452 323.762 444.798 323.756 444.206 323.88C443.322 324.064 444.518 324.078 444.803 324.019C446.048 323.758 447.199 323.259 448.352 322.746C448.735 322.575 449.122 322.374 449.544 322.35C449.718 322.34 450.67 321.479 450.055 321.78C448.533 322.525 447.085 323.476 445.463 324.032C445.173 324.132 444.499 324.753 444.249 324.631C443.335 324.183 442.016 323.796 440.984 323.852C440.694 323.867 441.885 324.822 441.999 324.916C442.331 325.187 443.108 325.121 443.532 325.291C444.175 325.549 444.41 325.99 445.072 325.409C445.211 325.288 446.095 324.694 446.095 324.853C446.095 325.817 446.321 324.394 446.733 323.991C447.013 323.717 447.654 323.542 447.763 323.17C447.939 322.565 449.405 321.165 450.055 321.098C450.364 321.066 450.423 320.89 450.709 320.785C451.434 320.519 452.18 320.199 452.881 319.874C453.37 319.647 453.912 319.349 454.336 319.026C454.661 318.778 454.858 318.348 455.11 318.031C455.253 317.851 455.421 317.815 455.521 317.593C455.691 317.219 455.55 317.656 455.493 317.719C455.216 318.022 454.964 318.307 454.67 318.595C454.321 318.936 453.92 319.056 453.534 319.346C453.131 319.649 452.733 319.904 452.299 320.159C451.84 320.429 451.345 320.454 450.879 320.667C450.169 320.991 449.484 321.098 448.714 321.098C446.817 321.098 444.926 321.223 443.028 321.223" stroke="#A803D5" stroke-width="3" stroke-linecap="round"/>
<path d="M406.92 358V340.96H414.048C415.28 340.96 416.344 341.168 417.24 341.584C418.136 342 418.832 342.592 419.328 343.36C419.824 344.128 420.072 345.032 420.072 346.072C420.072 346.856 419.904 347.552 419.568 348.16C419.232 348.768 418.776 349.256 418.2 349.624C417.64 349.992 417.016 350.216 416.328 350.296L416.208 350.056C417.312 350.056 418.16 350.304 418.752 350.8C419.36 351.296 419.704 352.056 419.784 353.08L420.216 358H417.048L416.688 353.536C416.64 352.864 416.424 352.368 416.04 352.048C415.656 351.728 415.016 351.568 414.12 351.568H410.04V358H406.92ZM410.04 348.832H413.856C414.8 348.832 415.536 348.608 416.064 348.16C416.592 347.712 416.856 347.08 416.856 346.264C416.856 345.432 416.584 344.792 416.04 344.344C415.512 343.896 414.736 343.672 413.712 343.672H410.04V348.832ZM424.427 358V345.184H427.499V358H424.427ZM424.379 343.48V340.744H427.571V343.48H424.379ZM432.26 358V345.184H435.044L435.14 348.328L434.852 348.184C434.996 347.496 435.244 346.912 435.596 346.432C435.964 345.936 436.404 345.56 436.916 345.304C437.444 345.032 438.02 344.896 438.644 344.896C439.732 344.896 440.612 345.208 441.284 345.832C441.956 346.44 442.38 347.28 442.556 348.352H442.148C442.292 347.6 442.54 346.976 442.892 346.48C443.244 345.968 443.684 345.576 444.212 345.304C444.756 345.032 445.364 344.896 446.036 344.896C446.916 344.896 447.676 345.088 448.316 345.472C448.956 345.84 449.444 346.384 449.78 347.104C450.132 347.824 450.308 348.712 450.308 349.768V358H447.236V350.56C447.236 349.504 447.052 348.712 446.684 348.184C446.332 347.656 445.788 347.392 445.052 347.392C444.556 347.392 444.132 347.52 443.78 347.776C443.428 348.032 443.156 348.408 442.964 348.904C442.788 349.384 442.7 349.968 442.7 350.656V358H439.844V350.656C439.844 349.6 439.684 348.792 439.364 348.232C439.044 347.672 438.492 347.392 437.708 347.392C437.212 347.392 436.788 347.52 436.436 347.776C436.1 348.032 435.828 348.408 435.62 348.904C435.428 349.384 435.332 349.968 435.332 350.656V358H432.26ZM454.647 358V345.184H457.719V358H454.647ZM454.599 343.48V340.744H457.791V343.48H454.599ZM462.48 358V345.184H465.264L465.384 348.784L465.024 348.64C465.152 347.744 465.416 347.024 465.816 346.48C466.216 345.936 466.704 345.536 467.28 345.28C467.856 345.024 468.488 344.896 469.176 344.896C470.12 344.896 470.912 345.104 471.552 345.52C472.208 345.936 472.704 346.512 473.04 347.248C473.376 347.968 473.544 348.808 473.544 349.768V358H470.472V350.752C470.472 350.032 470.4 349.424 470.256 348.928C470.112 348.432 469.872 348.056 469.536 347.8C469.216 347.528 468.784 347.392 468.24 347.392C467.424 347.392 466.768 347.68 466.272 348.256C465.792 348.832 465.552 349.664 465.552 350.752V358H462.48ZM477.883 358V345.184H480.955V358H477.883ZM477.835 343.48V340.744H481.027V343.48H477.835Z" fill="white"/>
</g>
<defs>
<clipPath id="clip0_99_2">
<rect width="890" height="615" fill="white"/>
</clipPath>
</defs>
</svg>
