<svg width="857" height="857" viewBox="0 0 857 857" fill="none" xmlns="http://www.w3.org/2000/svg">
<g clip-path="url(#clip0_99_2)">
<path d="M375.8 -29.5745C369 -27.1745 359 -22.6412 353.533 -19.7079C347.933 -16.6412 342.6 -14.2412 341.533 -14.2412C340.333 -14.2412 337.533 -15.4412 335.133 -16.9079C330.2 -19.8412 323.4 -20.3745 319 -17.9745C317.4 -17.1745 312.2 -15.9745 307.4 -15.4412C296.6 -13.9745 297.266 -13.9745 289.933 -15.0412C285.266 -15.7079 282.733 -15.3079 278.6 -13.1745C268.866 -8.10786 264.733 -1.17453 264.733 10.5588C264.733 18.8255 262.6 20.8255 254.6 20.0255C245.933 19.2255 233.133 15.7588 230.6 13.6255C229.4 12.6921 227.4 9.62547 225.933 6.95881C221.533 -1.84119 217.4 -2.10786 209.8 5.89214C207.533 8.29214 204.333 10.0255 200.733 10.5588C193.533 11.7588 191.666 14.6921 189.8 28.5588C188.333 39.6255 188.333 39.8921 191.933 44.9588C198.6 54.8255 195.4 58.9588 183.8 54.9588C179.933 53.6255 175.4 51.6255 173.8 50.5588C167.4 46.0255 155.933 48.9588 148.6 56.8255C145.8 59.8921 143.4 63.7588 143.4 65.3588C143.4 69.3588 148.333 80.4255 151.8 84.1588C154.6 87.2255 154.6 87.2255 152.066 92.1588C150.733 94.8255 149.4 97.4921 149.133 97.8921C149 98.4255 150.333 100.425 152.2 102.425C155.4 105.892 155.4 106.159 153.266 108.559C150.6 111.625 147 111.892 144.866 109.225C143.933 108.159 141.933 103.225 140.333 98.1588C136.866 87.4921 135.933 87.0921 121.533 90.5588C114.733 92.1588 111.133 93.8921 108.466 96.6921C101.4 104.159 89.9331 100.025 87.3998 89.0921C86.7331 86.1588 86.0664 79.7588 86.0664 74.9588C86.0664 63.6255 83.5331 61.8921 77.3998 68.8255C74.0664 72.6921 72.5998 73.3588 69.6664 72.8255C66.7331 72.2921 64.9998 72.9588 62.0664 75.7588C57.2664 80.4255 55.9331 86.6921 58.0664 94.2921C59.5331 99.4921 59.3998 100.692 56.7331 105.892C54.9998 109.092 48.9998 116.292 43.2664 121.759C37.5331 127.225 32.3331 133.225 31.6664 135.092C29.3998 141.225 28.3331 161.625 30.0664 165.759C33.7998 174.825 27.5331 180.425 19.1331 175.492C15.1331 173.225 14.4664 171.759 11.7997 160.959C10.1997 154.425 8.8664 146.292 8.73307 142.959C8.73307 135.892 4.73307 131.092 -1.1336 131.092C-7.00026 131.092 -13.9336 126.559 -23.5336 116.692L-32.6003 107.359L-32.4669 94.6921C-32.3336 79.4921 -34.2003 72.4255 -38.3336 72.4255C-41.2669 72.4255 -55.0003 80.6921 -56.8669 83.6255C-57.4003 84.4255 -57.9336 86.9588 -57.9336 89.2255C-57.9336 94.4255 -62.4669 98.8255 -68.6003 99.3588C-73.0003 99.7588 -73.2669 100.025 -73.6669 105.492C-73.9336 108.559 -73.1336 114.559 -71.9336 118.692L-69.8003 126.025L-74.2003 130.292C-76.7336 132.559 -81.1336 139.092 -84.0669 144.692C-89.0003 154.559 -92.3336 157.359 -94.6003 153.759C-96.3336 151.092 -101.4 152.425 -104.334 156.425C-108.067 161.359 -110.734 161.492 -125.934 157.625L-137.267 154.692L-143.267 158.959C-149 163.092 -149.4 163.225 -159.267 162.292C-167.134 161.625 -170.334 161.892 -173.4 163.492C-178.334 166.025 -182.6 166.425 -189 165.092C-193.667 164.159 -194.6 164.425 -199 168.825C-202.2 171.759 -205.8 173.759 -209.267 174.292C-212.2 174.825 -216.867 175.892 -219.534 176.692L-224.6 178.159L-224.467 186.292C-224.334 190.825 -223.934 195.892 -223.4 197.759C-222.6 200.692 -211 211.359 -207.267 212.692C-206.334 212.959 -205 216.692 -204.334 221.092C-202.6 232.292 -198.467 239.092 -191.534 242.559C-182.067 247.092 -180.734 251.759 -187.267 257.759C-190.467 260.692 -191.267 262.559 -191.267 266.825C-191.267 272.825 -194.067 275.625 -205.134 280.559C-208.334 281.892 -212.2 284.559 -213.534 286.425C-215 288.559 -219.534 290.825 -225.8 292.959C-234.867 296.025 -235.934 296.159 -239.534 294.292C-247.134 290.425 -248.334 296.559 -241.534 304.425C-233.4 314.025 -230.334 320.425 -229.534 330.292C-229 335.892 -227.8 340.425 -226.6 341.625C-225.267 342.959 -220.867 343.892 -213.667 344.425L-202.6 345.092L-203 352.025C-203.267 355.892 -202.867 359.225 -202.067 359.759C-199.667 361.225 -200.467 362.825 -204.2 364.692C-207.667 366.292 -208.067 367.359 -208.867 376.025C-209.667 383.225 -210.734 387.092 -213.534 391.225L-217.134 396.559L-214.6 403.759C-213.4 407.625 -212.6 412.425 -213 414.425C-214.067 420.559 -211.4 427.492 -205.534 433.225C-202.467 436.159 -197.8 441.225 -195.134 444.159C-191.8 448.159 -189.4 449.759 -186.734 449.759C-184.734 449.759 -179.4 451.492 -174.867 453.625C-166.6 457.492 -166.467 457.492 -147 456.825C-128.6 456.025 -127.267 456.159 -126.467 458.559C-125.934 459.892 -124.6 462.159 -123.534 463.359C-121.667 465.625 -122.067 469.759 -125.4 482.025C-125.8 483.359 -127.667 484.425 -130.334 484.692C-133.934 484.959 -135.134 486.159 -138.067 491.625C-142.2 499.225 -143.934 507.892 -141.934 510.425C-141.134 511.359 -136.2 512.559 -130.867 512.959C-122.867 513.625 -118.867 513.225 -106.6 509.892C-98.4669 507.759 -90.3336 505.492 -88.4669 504.692C-83.0003 502.559 -64.0669 483.092 -62.0669 477.759C-61.1336 475.225 -57.9336 468.159 -55.0003 462.025C-49.9336 451.892 -49.1336 450.959 -44.2003 449.625C-37.4003 447.759 -31.8003 442.025 -30.6003 435.492C-29.2669 427.625 -26.4669 424.559 -16.8669 420.292C-11.9336 418.025 -5.66693 414.692 -2.7336 412.692C1.2664 409.892 3.93307 409.225 10.0664 409.092C16.9997 409.092 18.5997 409.625 25.6664 414.559C29.9331 417.625 37.7998 422.292 43.1331 425.092C51.5331 429.359 53.3998 429.892 56.1998 428.692C57.9331 427.759 59.3998 426.559 59.3998 425.759C59.3998 422.825 63.6664 424.825 75.5331 433.492C82.4664 438.425 89.5331 443.092 91.5331 443.892C93.6664 444.959 95.5331 447.359 96.5998 450.692C97.5331 453.492 101.533 459.225 105.533 463.492C111.266 469.492 113.533 471.092 116.733 471.092C120.2 471.092 121.133 470.292 122.733 466.559L124.733 461.892L134.733 466.559C140.333 468.959 145.933 471.092 147.133 471.092C149.933 471.092 165.8 488.692 168.2 494.425C169.133 496.825 170.6 504.559 171.266 511.892C172.066 519.092 173.533 528.025 174.733 531.759C175.933 535.359 177.4 543.759 178.066 550.292C179.266 562.159 179.266 562.159 185.266 567.759C188.6 570.825 191.4 573.892 191.4 574.559C191.533 580.025 195.666 594.025 197.933 596.292C201.4 599.759 203.133 612.825 200.733 618.425C198.066 624.825 197.666 631.625 199.8 636.825C201.533 640.825 202.866 641.892 207.666 643.092C218.6 645.892 228.6 650.025 229.4 652.159C229.8 653.359 229.8 657.492 229.266 661.359C228.2 670.292 230.733 675.092 236.733 675.092C247.266 675.092 259.933 685.492 267.4 700.425C271.266 708.159 273.4 710.959 275.933 711.625C278.2 712.159 279.666 713.892 280.733 717.092C282.733 723.225 293 732.159 299.266 733.092C316.066 735.759 318.866 736.559 321.8 739.759C323.4 741.759 324.733 744.692 324.733 746.425C324.733 750.159 327.933 753.759 331.4 753.759C335.266 753.759 343.133 765.225 346.2 775.225C347.666 780.159 349.666 784.959 350.733 785.759C351.666 786.559 355.933 788.025 360.066 789.225C368.6 791.359 382.066 798.025 385.133 801.625C386.2 802.825 388.466 807.892 390.066 813.092C395.8 830.559 403.4 841.759 409.8 841.759C415.533 841.892 423.266 846.959 427.8 853.892C436.866 867.625 442.466 871.759 458.866 876.959C474.866 882.159 477.666 884.159 481.8 893.892C486.466 904.559 492.466 906.692 504.066 901.759C514.866 897.092 519.133 897.092 528.066 901.492C540.6 907.759 552.066 910.559 557.266 908.692C559.666 907.759 562.333 907.092 563.266 907.092C564.2 907.092 568.866 910.825 573.666 915.359C580.066 921.625 583.666 926.425 587.133 933.759C589.8 939.225 594.466 946.559 597.666 949.892C603 955.625 603.4 956.559 602.6 961.225C601.933 965.892 602.333 966.825 606.066 970.425C609.666 973.892 611.133 974.425 617.4 974.292C621.533 974.159 625.8 973.225 627.533 971.892C631.933 968.825 633.133 969.092 640.333 975.092C643.8 978.025 647.533 981.092 648.333 981.759C650.866 983.759 647.933 988.959 643.4 990.692C640.6 991.759 639.266 993.492 638.2 997.225C634.6 1010.03 637.266 1011.89 649.8 1006.03C657.4 1002.56 660.733 1001.76 671.533 1001.36C682.333 1000.96 685.133 1000.29 688.733 997.759C693 994.692 693.133 994.692 695 997.225C696.066 998.559 698.066 1002.16 699.4 1005.09C700.733 1008.03 704.2 1014.56 707.266 1019.76C713.4 1030.29 713.8 1033.23 710.066 1041.63C707.533 1047.09 707.4 1048.03 709.266 1054.43C712.066 1063.63 719 1069.76 726.733 1069.76C729.133 1069.76 730.466 1070.69 731.4 1073.23C732.866 1076.83 740.466 1084.43 742.733 1084.43C743.533 1084.43 748.333 1086.83 753.266 1089.89C761.4 1094.83 762.733 1095.23 766.066 1093.76C768.066 1092.96 771.666 1090.16 774.2 1087.63C776.6 1085.09 779.4 1083.09 780.6 1083.09C788.333 1083.09 800.066 1103.09 801.933 1119.63C802.6 1124.83 804.2 1131.76 805.666 1135.09C807.133 1138.43 809.133 1143.49 810.066 1146.43C812.733 1154.69 819.266 1167.23 823.8 1172.29C829.4 1178.83 831.4 1184.43 831.4 1194.03C831.4 1199.09 833 1208.16 835.266 1216.83C837.8 1225.89 839 1232.83 838.466 1235.63C837.8 1239.49 838.466 1240.96 843.133 1245.89C849.533 1252.96 850.466 1255.89 849.266 1263.89C848.6 1268.43 847 1271.63 843.666 1275.36C839.533 1279.89 838.2 1280.56 834.733 1280.03C831.4 1279.49 829.4 1280.29 824.733 1283.89C821.666 1286.43 816.733 1289.09 814.066 1289.76C805.933 1291.89 805.933 1294.43 813.666 1307.23L818.2 1314.83L813.133 1326.43C808.733 1336.56 807.266 1338.83 801.133 1343.23C797.4 1346.03 792.6 1350.56 790.466 1353.23C787 1357.89 786.733 1358.83 787 1371.63C787 1379.09 787.533 1387.63 788.066 1390.69C789 1396.03 789.533 1396.56 794.6 1398.03C797.533 1398.83 807.533 1399.63 816.733 1399.63C832.733 1399.76 833.666 1399.63 841.266 1395.76C847.8 1392.43 850.066 1390.43 853.533 1384.43C855.933 1380.43 858.866 1373.76 860.066 1369.76C863.266 1359.23 864.733 1356.43 870.866 1350.29C874.866 1346.29 877.933 1344.43 881.933 1343.76C889.533 1342.43 894.733 1337.76 898.066 1328.69C900.733 1321.76 900.733 1320.43 899.266 1312.69C897.933 1306.16 897.933 1300.96 899 1289.49C900.466 1274.96 900.6 1274.43 905 1270.96C912.333 1264.83 923.933 1258.43 933.933 1255.09C942.2 1252.29 943.8 1252.03 947.933 1253.49C951.533 1254.83 953.933 1254.83 958.6 1253.63C966.2 1251.76 967.133 1250.56 968.2 1241.36C969 1234.56 968.733 1233.49 965.533 1229.76C960.866 1224.16 960.2 1220.69 962.733 1214.83C965.4 1208.43 965.266 1203.23 962.466 1200.16C960.466 1197.89 960.466 1197.36 962.466 1192.96C967.8 1181.76 962.733 1174.16 943.266 1164.43C934.733 1160.16 932.466 1158.29 917.133 1142.69C910.2 1135.76 907.4 1133.89 899.133 1131.09C893.266 1129.09 889.266 1126.96 889 1125.63C888.866 1124.56 892.2 1119.09 896.6 1113.49C905.933 1101.89 907.4 1098.69 907.4 1089.76C907.4 1081.36 909.133 1076.83 914.733 1071.09C917.266 1068.43 921.666 1060.83 924.866 1053.36C930.2 1040.69 930.866 1040.03 945.4 1026.43C953.666 1018.69 961.4 1012.43 962.6 1012.43C965.666 1012.43 974.2 1019.09 973.266 1020.56C972.866 1021.23 969.933 1022.43 966.733 1023.23C960.2 1024.96 957.4 1027.36 958.6 1030.43C959.533 1033.09 967.4 1036.43 972.466 1036.43C974.466 1036.43 978.6 1037.63 981.4 1039.09C996.866 1047.09 1003.8 1049.09 1015.4 1048.96C1021.67 1048.83 1028.87 1048.29 1031.4 1047.76C1040.2 1046.03 1046.33 1053.89 1051.4 1073.36C1057.27 1095.23 1057.93 1096.43 1069 1108.43C1079.4 1119.63 1090.07 1126.96 1096.2 1127.09C1100.2 1127.09 1105.67 1122.43 1107.27 1117.36C1108.07 1115.09 1109.67 1107.76 1110.73 1101.23C1112.2 1093.09 1114.6 1085.76 1118.2 1078.29C1125 1064.43 1124.6 1061.63 1115.13 1053.63C1111.27 1050.29 1104.73 1042.43 1099.93 1035.09C1089.8 1019.36 1079.53 1009.76 1069.53 1006.69C1063.53 1004.69 1062.07 1003.76 1061.4 1000.69C1061 998.692 1059.93 996.159 1059 994.959C1058.07 993.759 1044.47 986.692 1028.73 979.225L1000.07 965.492L986.066 951.759C971 937.092 961.533 930.959 950.466 928.559C946.733 927.759 937.4 924.425 929.8 920.959C922.333 917.625 909.266 912.159 901 908.959C881.266 901.225 878.466 899.759 872.066 893.759C869.133 891.092 861.4 886.292 854.733 883.359C839.666 876.425 835.933 873.492 829.533 863.225C822.066 850.959 822.6 849.892 843.8 833.492C849.8 828.825 854.066 824.559 854.066 823.225C854.066 821.892 855.266 819.225 856.866 817.225C860.6 812.559 859.266 809.492 850.866 803.092C843.666 797.625 834.733 793.759 829.266 793.759C824.466 793.759 808.733 800.425 807 803.225C805 806.425 802.733 806.425 797.933 802.959C792.466 799.092 786.333 798.559 778.066 800.959C768.2 803.892 758.2 803.759 757.133 800.692C755.8 796.959 753.8 796.292 746.733 797.225C738.2 798.159 722.866 793.492 710.333 786.025C705.4 782.959 698.866 779.625 695.933 778.425C691 776.559 689.933 775.225 686.733 767.492C682.6 757.892 677.133 752.692 660.733 743.092C649.266 736.159 645.533 732.159 642.066 722.692C639 714.425 637.4 713.225 624.733 709.492C617.4 707.359 608.066 696.559 606.6 688.825C606.2 686.025 602.866 677.225 599.133 669.359C595.533 661.359 591.666 650.559 590.6 645.359C587 627.759 583.266 614.559 579.133 604.425C576.866 598.959 573.666 590.292 571.933 585.225C570.2 580.159 568.066 575.225 567.133 574.025C566.2 572.959 565.133 567.625 564.6 562.159C563.8 552.692 563.533 552.025 557.933 546.292C554.733 542.959 549.933 539.092 547.266 537.759C544.6 536.292 537.933 531.625 532.6 527.359C527.133 523.092 519.4 517.492 515.4 514.825C511.4 512.292 503.533 506.425 498.066 501.759C491.8 496.559 483.533 491.225 476.066 487.759C466.066 483.092 460.466 479.092 444.6 465.359C433.933 456.025 423.533 446.292 421.666 443.492C416.066 435.359 408.733 411.625 408.733 401.625C408.733 395.625 407.533 389.759 404.733 381.759C400.333 369.492 399.933 364.825 402.2 355.625C403.533 350.292 404.066 349.625 406.6 350.425C414.066 352.825 419.933 348.692 421.4 340.159C422.066 336.425 423.266 334.559 425.533 333.492C434.333 329.492 428.466 317.492 412.733 307.092C405.4 302.159 404.733 300.959 405.666 291.625C406.333 284.692 405.933 282.425 403.533 277.759C400.2 271.359 399.933 263.092 402.733 255.092C403.8 252.025 404.733 247.359 404.733 244.959C404.733 240.159 406.2 238.959 420.466 230.959C426.2 227.892 426.333 227.892 427.8 230.292C431.666 236.559 433.533 237.625 439.266 236.292C442.2 235.625 450.733 232.559 458.2 229.492C468.466 225.225 473.533 222.292 479.8 216.559C484.333 212.425 490.066 207.625 492.466 206.025C494.866 204.292 497.666 200.825 498.733 198.292C501 192.692 503.4 192.559 516.866 197.225C522.333 199.225 530.333 201.092 534.866 201.359C542.466 202.025 543.266 201.892 547.533 198.025C554.2 192.159 558.2 191.492 563.266 195.225C567.133 198.025 567.4 198.692 566.6 204.292L565.8 210.425L571.666 213.359C582.066 218.425 584.733 219.225 587.533 217.759C591.533 215.492 590.866 207.225 585.533 195.625C583 190.159 580.333 185.759 579.8 185.759C579.133 185.759 574.333 182.159 569.133 177.892C559.8 170.025 559.8 169.892 558.866 161.759C557.666 150.959 556.066 147.092 552.866 147.092C551.533 147.092 549.666 146.159 548.733 145.092C547.4 143.359 547.8 142.425 551.4 139.359C559.8 132.292 564.733 126.825 564.733 124.559C564.733 121.625 554.6 110.159 549.8 107.625C547.8 106.559 544.733 106.025 543 106.425C539.266 107.359 537.133 105.225 535.933 99.3588C535.133 95.6255 535.533 95.0921 540.6 92.5588C543.533 90.9588 548.333 87.4921 551.133 84.5588C554.066 81.6255 558.066 78.9588 560.733 78.4255C563.266 77.8921 566.2 76.8255 567.133 76.1588C568.866 74.6921 569.266 66.0255 567.666 63.4921C565.666 60.2921 545.533 54.6921 532.066 53.6255C524.733 53.0921 510.066 51.0921 499.533 49.0921C488.866 47.0921 478.466 45.7588 476.2 46.1588C473.4 46.5588 470.333 45.7588 466.733 43.7588C456.2 37.7588 435.133 30.8255 429.666 31.4921C425.4 32.0255 423.4 31.3588 416.733 26.9588C412.466 24.0255 408.466 20.4255 408.066 18.8255C407.533 17.3588 407.933 13.4921 408.733 10.2921C410.2 5.09214 410.2 4.02547 408.066 1.75881C406.466 0.025474 403.933 -0.907859 400.733 -0.907859C393.133 -0.907859 390.066 -7.04119 393.533 -15.3079C395.4 -20.1079 396.066 -28.3745 394.6 -32.1079C393.4 -35.1745 389.666 -34.6412 375.8 -29.5745Z" fill="#444"/>
<path d="M456.832 423.274C456.832 444.221 429.9 462.175 429.9 462.175C429.9 462.175 402.968 444.221 402.968 423.274C402.968 416.131 405.805 409.281 410.856 404.23C415.907 399.179 422.757 396.342 429.9 396.342C437.043 396.342 443.893 399.179 448.944 404.23C453.994 409.281 456.832 416.131 456.832 423.274Z" stroke="#A803D5" stroke-width="6" stroke-linecap="round" stroke-linejoin="round"/>
<path d="M429.9 432.251C434.858 432.251 438.877 428.232 438.877 423.274C438.877 418.316 434.858 414.297 429.9 414.297C424.942 414.297 420.923 418.316 420.923 423.274C420.923 428.232 424.942 432.251 429.9 432.251Z" fill="#D9D9D9" stroke="#A803D5" stroke-width="33" stroke-linecap="round" stroke-linejoin="round"/>
<path d="M414.136 442.992C415.011 444.195 415.57 447.356 417.02 447.936C417.605 448.17 417.671 449.096 418.164 449.378C418.769 449.723 419.387 450.535 419.904 451.026C420.867 451.941 422.082 452.359 423.04 453.246C423.808 453.958 424.793 454.222 425.569 454.825C425.919 455.097 426.331 455.001 426.702 455.352C426.97 455.605 427.177 455.772 427.412 456.073C427.75 456.508 427.803 457.573 428.396 457.778C429.91 458.302 432.034 455.754 433.203 455.329C433.627 455.175 433.882 454.581 434.278 454.322C434.537 454.153 434.803 454.055 435.057 453.91C435.693 453.546 436.581 452.758 437.048 452.17C437.628 451.441 438.599 451.024 439.268 450.316C439.836 449.715 440.598 448.544 441.431 448.359C442.613 448.097 444.316 447.217 445.208 446.414C445.817 445.866 446.152 445.327 446.684 444.731C447.02 444.356 447.856 442.951 446.845 442.992C446.416 443.009 445.884 443.527 445.517 443.747C444.439 444.394 443.357 444.955 442.255 445.567C441.333 446.079 440.07 445.921 439.062 446.173C436.605 446.788 434.072 446.7 431.555 446.7C427.389 446.7 423.188 446.906 419 446.906C418.267 446.906 417.295 446.881 416.619 446.585C415.693 446.18 415.5 445.336 414.914 444.686C414.576 444.31 414.795 444.452 415.074 444.731C415.601 445.258 416.217 445.862 416.86 446.242C418.556 447.246 420.208 447.28 421.976 447.833C422.749 448.075 423.406 448.306 423.406 449.275C423.406 450.337 423.799 450.147 424.642 450.568C424.957 450.725 425.337 451.209 424.688 451.209C423.104 451.209 421.352 450.283 420.018 449.492C418.538 448.615 417.263 447.435 415.773 446.597C415.318 446.341 414.052 445.258 415.269 445.258C415.903 445.258 418.975 446.633 417.638 445.258C416.872 444.47 415.872 443.817 414.96 443.209C413.862 442.477 416.532 444.354 416.791 444.525C420.201 446.777 423.838 446.729 427.721 447.215C429.513 447.439 431.375 447.318 433.18 447.318C434.517 447.318 435.699 446.7 437.002 446.7C437.793 446.7 439.427 446.518 438.238 447.707C437.546 448.399 436.604 448.313 435.72 448.451C432.074 449.021 428.385 448.485 424.734 448.806C423.339 448.928 421.945 449.172 420.545 449.172C420.338 449.172 418.691 449.101 419.172 449.218C422.869 450.114 426.964 449.996 430.742 449.996C431.273 449.996 432.882 449.591 432.882 450.408C432.882 450.855 432.903 451.456 432.367 451.621C431.435 451.908 430.38 451.899 429.426 452.102C428.001 452.405 429.929 452.428 430.387 452.331C432.395 451.902 434.251 451.081 436.11 450.236C436.728 449.955 437.351 449.624 438.032 449.584C438.312 449.567 439.846 448.15 438.856 448.645C436.401 449.873 434.067 451.438 431.452 452.353C430.985 452.517 429.898 453.539 429.495 453.338C428.022 452.601 425.895 451.963 424.23 452.056C423.763 452.082 425.683 453.654 425.867 453.807C426.403 454.254 427.655 454.145 428.339 454.425C429.376 454.849 429.755 455.574 430.822 454.619C431.046 454.419 432.47 453.442 432.47 453.704C432.47 455.29 432.836 452.949 433.5 452.285C433.951 451.834 434.985 451.546 435.16 450.934C435.444 449.939 437.808 447.634 438.856 447.524C439.353 447.471 439.448 447.182 439.909 447.009C441.079 446.57 442.281 446.044 443.411 445.51C444.201 445.136 445.074 444.645 445.757 444.113C446.281 443.706 446.599 442.998 447.005 442.477C447.236 442.18 447.506 442.121 447.669 441.756C447.943 441.139 447.714 441.86 447.623 441.962C447.176 442.461 446.77 442.929 446.295 443.404C445.733 443.966 445.086 444.162 444.464 444.64C443.814 445.138 443.173 445.559 442.473 445.979C441.733 446.423 440.935 446.464 440.184 446.814C439.04 447.348 437.935 447.524 436.693 447.524C433.635 447.524 430.587 447.73 427.526 447.73" stroke="#A803D5" stroke-width="3" stroke-linecap="round"/>
</g>
<defs>
<clipPath id="clip0_99_2">
<rect width="857" height="857" fill="white"/>
</clipPath>
</defs>
</svg>
