<svg xmlns="http://www.w3.org/2000/svg" width="180" height="180" viewBox="0 0 180 180" fill="none"><metadata><rdf:RDF xmlns:rdf="http://www.w3.org/1999/02/22-rdf-syntax-ns#" xmlns:dc="http://purl.org/dc/elements/1.1/"><circle cx="90" cy="90" r="74" fill="white" stroke="black" stroke-width="2"></circle><path d="M90.8541 125.536C85.7981 125.536 81.3181 124.544 77.4141 122.56C73.5741 120.576 70.5341 117.856 68.2941 114.4C66.0541 110.88 64.8061 106.912 64.5501 102.496L71.3661 102.016C71.6221 105.408 72.5821 108.416 74.2461 111.04C75.9101 113.6 78.1501 115.584 80.9661 116.992C83.7821 118.4 87.1421 119.104 91.0461 119.104C94.4381 119.104 97.3821 118.624 99.8781 117.664C102.374 116.704 104.294 115.296 105.638 113.44C106.982 111.584 107.654 109.344 107.654 106.72C107.654 104.48 107.142 102.496 106.118 100.768C105.094 99.04 103.11 97.44 100.166 95.968C97.2221 94.496 92.9341 93.088 87.3021 91.744C82.1181 90.464 77.9581 89.056 74.8221 87.52C71.7501 85.984 69.5101 84.096 68.1021 81.856C66.6941 79.552 65.9901 76.672 65.9901 73.216C65.9901 69.568 66.8861 66.336 68.6781 63.52C70.4701 60.64 73.0301 58.4 76.3581 56.8C79.7501 55.136 83.7821 54.304 88.4541 54.304C93.4461 54.304 97.7021 55.296 101.222 57.28C104.742 59.2 107.494 61.792 109.478 65.056C111.462 68.256 112.614 71.808 112.934 75.712L106.118 76.192C105.862 73.312 105.03 70.688 103.622 68.32C102.214 65.952 100.23 64.096 97.6701 62.752C95.1101 61.408 91.9741 60.736 88.2621 60.736C83.4621 60.736 79.6861 61.888 76.9341 64.192C74.1821 66.432 72.8061 69.376 72.8061 73.024C72.8061 75.328 73.3181 77.248 74.3421 78.784C75.3661 80.256 77.1901 81.568 79.8141 82.72C82.4381 83.808 86.1821 84.96 91.0461 86.176C97.0621 87.584 101.766 89.28 105.158 91.264C108.614 93.184 111.046 95.392 112.454 97.888C113.862 100.384 114.566 103.232 114.566 106.432C114.566 110.336 113.51 113.728 111.398 116.608C109.35 119.488 106.534 121.696 102.95 123.232C99.4301 124.768 95.3981 125.536 90.8541 125.536Z" fill="black"></path></svg>